<?xml version="1.0" encoding="UTF-8"?>
<svg xmlns="http://www.w3.org/2000/svg" xmlns:xlink="http://www.w3.org/1999/xlink" width="121pt" height="32pt" viewBox="0 0 121 32" version="1.1">
<defs>
<linearGradient id="linear0" gradientUnits="userSpaceOnUse" x1="193.931" y1="0.130847" x2="-34.8022" y2="55.5985" gradientTransform="matrix(0.159211,0,0,0.16,0,0)">
<stop offset="0" style="stop-color:rgb(1.176471%,79.215686%,64.705882%);stop-opacity:1;"/>
<stop offset="1" style="stop-color:rgb(0%,66.27451%,94.901961%);stop-opacity:1;"/>
</linearGradient>
<linearGradient id="linear1" gradientUnits="userSpaceOnUse" x1="759.891" y1="63.872" x2="209.985" y2="63.872" gradientTransform="matrix(0.159211,0,0,0.16,0,0)">
<stop offset="0" style="stop-color:rgb(0%,66.27451%,94.901961%);stop-opacity:1;"/>
<stop offset="0.479167" style="stop-color:rgb(1.176471%,79.215686%,64.705882%);stop-opacity:1;"/>
<stop offset="1" style="stop-color:rgb(1.176471%,79.215686%,64.705882%);stop-opacity:1;"/>
</linearGradient>
<linearGradient id="linear2" gradientUnits="userSpaceOnUse" x1="759.891" y1="63.872" x2="209.985" y2="63.872" gradientTransform="matrix(0.159211,0,0,0.16,0,0)">
<stop offset="0" style="stop-color:rgb(0%,66.27451%,94.901961%);stop-opacity:1;"/>
<stop offset="0.479167" style="stop-color:rgb(1.176471%,79.215686%,64.705882%);stop-opacity:1;"/>
<stop offset="1" style="stop-color:rgb(1.176471%,79.215686%,64.705882%);stop-opacity:1;"/>
</linearGradient>
<linearGradient id="linear3" gradientUnits="userSpaceOnUse" x1="759.891" y1="63.872" x2="209.985" y2="63.872" gradientTransform="matrix(0.159211,0,0,0.16,0,0)">
<stop offset="0" style="stop-color:rgb(0%,66.27451%,94.901961%);stop-opacity:1;"/>
<stop offset="0.479167" style="stop-color:rgb(1.176471%,79.215686%,64.705882%);stop-opacity:1;"/>
<stop offset="1" style="stop-color:rgb(1.176471%,79.215686%,64.705882%);stop-opacity:1;"/>
</linearGradient>
<linearGradient id="linear4" gradientUnits="userSpaceOnUse" x1="759.891" y1="63.872" x2="209.985" y2="63.872" gradientTransform="matrix(0.159211,0,0,0.16,0,0)">
<stop offset="0" style="stop-color:rgb(0%,66.27451%,94.901961%);stop-opacity:1;"/>
<stop offset="0.479167" style="stop-color:rgb(1.176471%,79.215686%,64.705882%);stop-opacity:1;"/>
<stop offset="1" style="stop-color:rgb(1.176471%,79.215686%,64.705882%);stop-opacity:1;"/>
</linearGradient>
<linearGradient id="linear5" gradientUnits="userSpaceOnUse" x1="759.891" y1="63.872" x2="209.985" y2="63.872" gradientTransform="matrix(0.159211,0,0,0.16,0,0)">
<stop offset="0" style="stop-color:rgb(0%,66.27451%,94.901961%);stop-opacity:1;"/>
<stop offset="0.479167" style="stop-color:rgb(1.176471%,79.215686%,64.705882%);stop-opacity:1;"/>
<stop offset="1" style="stop-color:rgb(1.176471%,79.215686%,64.705882%);stop-opacity:1;"/>
</linearGradient>
<linearGradient id="linear6" gradientUnits="userSpaceOnUse" x1="759.891" y1="63.872" x2="209.985" y2="63.872" gradientTransform="matrix(0.159211,0,0,0.16,0,0)">
<stop offset="0" style="stop-color:rgb(0%,66.27451%,94.901961%);stop-opacity:1;"/>
<stop offset="0.479167" style="stop-color:rgb(1.176471%,79.215686%,64.705882%);stop-opacity:1;"/>
<stop offset="1" style="stop-color:rgb(1.176471%,79.215686%,64.705882%);stop-opacity:1;"/>
</linearGradient>
<linearGradient id="linear7" gradientUnits="userSpaceOnUse" x1="759.891" y1="63.872" x2="209.985" y2="63.872" gradientTransform="matrix(0.159211,0,0,0.16,0,0)">
<stop offset="0" style="stop-color:rgb(0%,66.27451%,94.901961%);stop-opacity:1;"/>
<stop offset="0.479167" style="stop-color:rgb(1.176471%,79.215686%,64.705882%);stop-opacity:1;"/>
<stop offset="1" style="stop-color:rgb(1.176471%,79.215686%,64.705882%);stop-opacity:1;"/>
</linearGradient>
<linearGradient id="linear8" gradientUnits="userSpaceOnUse" x1="759.891" y1="63.872" x2="209.985" y2="63.872" gradientTransform="matrix(0.159211,0,0,0.16,0,0)">
<stop offset="0" style="stop-color:rgb(0%,66.27451%,94.901961%);stop-opacity:1;"/>
<stop offset="0.479167" style="stop-color:rgb(1.176471%,79.215686%,64.705882%);stop-opacity:1;"/>
<stop offset="1" style="stop-color:rgb(1.176471%,79.215686%,64.705882%);stop-opacity:1;"/>
</linearGradient>
</defs>
<g id="surface1">
<path style=" stroke:none;fill-rule:evenodd;fill:url(#linear0);" d="M 0.0273438 3.617188 C 0.0273438 1.628906 1.632812 0.0195312 3.605469 0.0195312 L 22.367188 0.0195312 C 24.34375 0.0195312 25.945312 1.628906 25.945312 3.617188 L 25.945312 5.773438 L 28.253906 2.9375 C 28.515625 2.574219 28.941406 2.339844 29.425781 2.339844 C 30.226562 2.339844 30.875 2.992188 30.875 3.796875 L 30.875 17.777344 C 30.875 18.582031 30.226562 19.234375 29.425781 19.234375 C 28.941406 19.234375 28.515625 19 28.253906 18.636719 L 25.945312 15.800781 L 25.945312 17.957031 C 25.945312 19.941406 24.34375 21.554688 22.367188 21.554688 L 15.054688 21.554688 C 14.625 21.558594 14.238281 21.761719 13.984375 22.070312 L 13.980469 22.070312 L 6.46875 31.378906 C 6.203125 31.742188 5.777344 31.980469 5.296875 31.980469 C 4.496094 31.980469 3.84375 31.328125 3.84375 30.519531 C 3.84375 30.3125 3.886719 30.117188 3.964844 29.941406 L 6.015625 23.582031 C 6.101562 23.394531 6.152344 23.1875 6.152344 22.972656 C 6.152344 22.1875 5.519531 21.554688 4.738281 21.554688 C 4.734375 21.554688 4.726562 21.554688 4.71875 21.554688 L 3.605469 21.554688 C 1.632812 21.554688 0.0273438 19.941406 0.0273438 17.957031 Z M 22.371094 5.335938 C 23.3125 5.335938 24.078125 4.566406 24.078125 3.617188 C 24.078125 2.667969 23.3125 1.898438 22.371094 1.898438 C 21.425781 1.898438 20.660156 2.667969 20.660156 3.617188 C 20.660156 4.566406 21.425781 5.335938 22.371094 5.335938 Z M 22.371094 5.335938 "/>
<path style=" stroke:none;fill-rule:nonzero;fill:rgb(100%,100%,100%);fill-opacity:1;" d="M 24.078125 3.617188 C 24.078125 4.566406 23.3125 5.335938 22.371094 5.335938 C 21.425781 5.335938 20.660156 4.566406 20.660156 3.617188 C 20.660156 2.667969 21.425781 1.898438 22.371094 1.898438 C 23.3125 1.898438 24.078125 2.667969 24.078125 3.617188 Z M 24.078125 3.617188 "/>
<path style=" stroke:none;fill-rule:nonzero;fill:url(#linear1);" d="M 48.835938 10.773438 L 48.835938 17.464844 C 48 18.082031 47.109375 18.535156 46.160156 18.828125 C 45.21875 19.109375 44.207031 19.25 43.132812 19.25 C 41.789062 19.25 40.570312 19.039062 39.476562 18.621094 C 38.390625 18.199219 37.460938 17.617188 36.6875 16.871094 C 35.921875 16.121094 35.328125 15.230469 34.910156 14.191406 C 34.496094 13.15625 34.285156 12.023438 34.285156 10.796875 C 34.285156 9.550781 34.488281 8.410156 34.890625 7.375 C 35.292969 6.335938 35.859375 5.445312 36.597656 4.699219 C 37.339844 3.949219 38.238281 3.371094 39.292969 2.957031 C 40.347656 2.546875 41.535156 2.339844 42.847656 2.339844 C 43.515625 2.339844 44.136719 2.394531 44.714844 2.5 C 45.296875 2.609375 45.835938 2.757812 46.328125 2.945312 C 46.832031 3.128906 47.285156 3.355469 47.695312 3.621094 C 48.105469 3.890625 48.480469 4.183594 48.824219 4.503906 L 47.945312 5.898438 C 47.808594 6.121094 47.632812 6.257812 47.410156 6.3125 C 47.191406 6.355469 46.953125 6.300781 46.695312 6.140625 C 46.445312 5.996094 46.191406 5.847656 45.941406 5.703125 C 45.691406 5.558594 45.410156 5.433594 45.101562 5.328125 C 44.796875 5.21875 44.453125 5.132812 44.066406 5.0625 C 43.683594 4.996094 43.246094 4.960938 42.742188 4.960938 C 41.933594 4.960938 41.195312 5.097656 40.535156 5.371094 C 39.882812 5.648438 39.324219 6.039062 38.863281 6.550781 C 38.398438 7.0625 38.042969 7.675781 37.792969 8.394531 C 37.542969 9.109375 37.417969 9.910156 37.417969 10.796875 C 37.417969 11.742188 37.550781 12.585938 37.816406 13.335938 C 38.089844 14.074219 38.46875 14.703125 38.953125 15.222656 C 39.445312 15.734375 40.039062 16.125 40.730469 16.402344 C 41.417969 16.667969 42.191406 16.800781 43.039062 16.800781 C 43.648438 16.800781 44.191406 16.738281 44.667969 16.605469 C 45.144531 16.476562 45.613281 16.300781 46.066406 16.082031 L 46.066406 13.082031 L 43.996094 13.082031 C 43.796875 13.082031 43.644531 13.03125 43.53125 12.921875 C 43.421875 12.808594 43.371094 12.671875 43.371094 12.511719 L 43.371094 10.773438 Z M 48.835938 10.773438 "/>
<path style=" stroke:none;fill-rule:nonzero;fill:url(#linear2);" d="M 57.464844 14.054688 C 56.65625 14.09375 55.972656 14.167969 55.417969 14.273438 C 54.863281 14.371094 54.417969 14.503906 54.085938 14.664062 C 53.75 14.824219 53.511719 15.007812 53.367188 15.222656 C 53.222656 15.4375 53.152344 15.667969 53.152344 15.921875 C 53.152344 16.417969 53.296875 16.769531 53.585938 16.984375 C 53.878906 17.199219 54.265625 17.304688 54.734375 17.304688 C 55.3125 17.304688 55.808594 17.203125 56.226562 16.996094 C 56.652344 16.78125 57.0625 16.460938 57.464844 16.035156 Z M 51.023438 8.964844 C 52.367188 7.730469 53.984375 7.113281 55.871094 7.113281 C 56.554688 7.113281 57.167969 7.226562 57.707031 7.453125 C 58.246094 7.675781 58.699219 7.988281 59.070312 8.394531 C 59.445312 8.789062 59.722656 9.265625 59.914062 9.824219 C 60.113281 10.378906 60.210938 10.988281 60.210938 11.652344 L 60.210938 19.066406 L 58.933594 19.066406 C 58.667969 19.066406 58.464844 19.027344 58.320312 18.953125 C 58.175781 18.867188 58.0625 18.703125 57.980469 18.460938 L 57.726562 17.613281 C 57.433594 17.878906 57.144531 18.117188 56.863281 18.324219 C 56.582031 18.519531 56.289062 18.6875 55.988281 18.828125 C 55.683594 18.964844 55.355469 19.066406 55.007812 19.136719 C 54.667969 19.210938 54.285156 19.25 53.871094 19.25 C 53.375 19.25 52.921875 19.183594 52.503906 19.054688 C 52.085938 18.917969 51.726562 18.714844 51.421875 18.449219 C 51.117188 18.183594 50.882812 17.851562 50.714844 17.453125 C 50.550781 17.058594 50.464844 16.59375 50.464844 16.070312 C 50.464844 15.773438 50.515625 15.476562 50.613281 15.1875 C 50.710938 14.890625 50.871094 14.609375 51.089844 14.34375 C 51.320312 14.074219 51.609375 13.824219 51.96875 13.585938 C 52.324219 13.351562 52.761719 13.144531 53.277344 12.96875 C 53.800781 12.792969 54.40625 12.652344 55.097656 12.546875 C 55.789062 12.429688 56.578125 12.363281 57.464844 12.339844 L 57.464844 11.652344 C 57.464844 10.867188 57.300781 10.289062 56.964844 9.914062 C 56.632812 9.53125 56.148438 9.34375 55.519531 9.34375 C 55.066406 9.34375 54.683594 9.394531 54.382812 9.503906 C 54.085938 9.609375 53.824219 9.730469 53.597656 9.867188 C 53.367188 10 53.160156 10.117188 52.96875 10.222656 C 52.789062 10.332031 52.582031 10.382812 52.355469 10.382812 C 52.15625 10.382812 51.992188 10.332031 51.855469 10.234375 C 51.71875 10.128906 51.609375 10.007812 51.523438 9.867188 Z M 51.023438 8.964844 "/>
<path style=" stroke:none;fill-rule:nonzero;fill:url(#linear3);" d="M 66.597656 19.25 C 65.578125 19.25 64.796875 18.964844 64.25 18.390625 C 63.710938 17.8125 63.441406 17.015625 63.441406 16 L 63.441406 9.445312 L 62.246094 9.445312 C 62.09375 9.445312 61.964844 9.394531 61.859375 9.296875 C 61.753906 9.199219 61.699219 9.046875 61.699219 8.851562 L 61.699219 7.730469 L 63.578125 7.421875 L 64.171875 4.21875 C 64.210938 4.066406 64.28125 3.945312 64.386719 3.863281 C 64.492188 3.777344 64.628906 3.738281 64.796875 3.738281 L 66.253906 3.738281 L 66.253906 7.433594 L 69.375 7.433594 L 69.375 9.445312 L 66.253906 9.445312 L 66.253906 15.804688 C 66.253906 16.171875 66.339844 16.457031 66.515625 16.664062 C 66.699219 16.871094 66.945312 16.972656 67.257812 16.972656 C 67.429688 16.972656 67.574219 16.953125 67.6875 16.914062 C 67.808594 16.871094 67.914062 16.824219 67.996094 16.777344 C 68.085938 16.734375 68.167969 16.691406 68.234375 16.652344 C 68.304688 16.605469 68.371094 16.585938 68.441406 16.585938 C 68.523438 16.585938 68.59375 16.605469 68.644531 16.652344 C 68.699219 16.691406 68.753906 16.753906 68.816406 16.835938 L 69.660156 18.207031 C 69.25 18.550781 68.777344 18.8125 68.246094 18.988281 C 67.714844 19.160156 67.164062 19.25 66.597656 19.25 Z M 66.597656 19.25 "/>
<path style=" stroke:none;fill-rule:nonzero;fill:url(#linear4);" d="M 73.984375 8.585938 C 74.441406 8.160156 74.941406 7.8125 75.488281 7.546875 C 76.035156 7.277344 76.675781 7.144531 77.414062 7.144531 C 78.050781 7.144531 78.617188 7.257812 79.109375 7.476562 C 79.601562 7.691406 80.011719 7.996094 80.339844 8.394531 C 80.671875 8.78125 80.921875 9.25 81.089844 9.800781 C 81.265625 10.339844 81.351562 10.941406 81.351562 11.597656 L 81.351562 19.066406 L 78.539062 19.066406 L 78.539062 11.597656 C 78.539062 10.878906 78.375 10.328125 78.050781 9.9375 C 77.722656 9.539062 77.226562 9.34375 76.558594 9.34375 C 76.074219 9.34375 75.617188 9.453125 75.191406 9.675781 C 74.765625 9.894531 74.367188 10.195312 73.984375 10.578125 L 73.984375 19.066406 L 71.175781 19.066406 L 71.175781 2.066406 L 73.984375 2.066406 Z M 73.984375 8.585938 "/>
<path style=" stroke:none;fill-rule:nonzero;fill:url(#linear5);" d="M 91.550781 11.847656 C 91.550781 11.480469 91.496094 11.136719 91.390625 10.816406 C 91.292969 10.492188 91.140625 10.203125 90.9375 9.960938 C 90.730469 9.714844 90.46875 9.527344 90.148438 9.386719 C 89.839844 9.242188 89.476562 9.171875 89.058594 9.171875 C 88.246094 9.171875 87.605469 9.402344 87.132812 9.867188 C 86.671875 10.332031 86.375 10.992188 86.246094 11.847656 Z M 86.1875 13.550781 C 86.234375 14.15625 86.339844 14.675781 86.507812 15.121094 C 86.675781 15.554688 86.894531 15.917969 87.167969 16.207031 C 87.441406 16.488281 87.761719 16.703125 88.136719 16.847656 C 88.515625 16.984375 88.933594 17.054688 89.386719 17.054688 C 89.84375 17.054688 90.234375 17 90.558594 16.894531 C 90.894531 16.785156 91.183594 16.667969 91.425781 16.539062 C 91.675781 16.410156 91.890625 16.289062 92.074219 16.183594 C 92.265625 16.078125 92.445312 16.023438 92.621094 16.023438 C 92.855469 16.023438 93.03125 16.113281 93.144531 16.285156 L 93.953125 17.316406 C 93.640625 17.683594 93.292969 17.992188 92.90625 18.242188 C 92.519531 18.488281 92.113281 18.683594 91.6875 18.839844 C 91.269531 18.984375 90.839844 19.085938 90.402344 19.148438 C 89.96875 19.207031 89.546875 19.238281 89.136719 19.238281 C 88.324219 19.238281 87.570312 19.105469 86.871094 18.839844 C 86.171875 18.5625 85.566406 18.164062 85.050781 17.636719 C 84.535156 17.101562 84.128906 16.445312 83.832031 15.667969 C 83.535156 14.882812 83.386719 13.976562 83.386719 12.945312 C 83.386719 12.144531 83.515625 11.394531 83.773438 10.691406 C 84.03125 9.984375 84.402344 9.367188 84.878906 8.851562 C 85.363281 8.324219 85.953125 7.910156 86.644531 7.601562 C 87.34375 7.296875 88.128906 7.144531 89 7.144531 C 89.738281 7.144531 90.414062 7.265625 91.039062 7.5 C 91.660156 7.738281 92.195312 8.082031 92.644531 8.542969 C 93.089844 8.992188 93.441406 9.546875 93.691406 10.210938 C 93.949219 10.867188 94.078125 11.617188 94.078125 12.464844 C 94.078125 12.894531 94.03125 13.183594 93.941406 13.335938 C 93.851562 13.480469 93.675781 13.550781 93.417969 13.550781 Z M 86.1875 13.550781 "/>
<path style=" stroke:none;fill-rule:nonzero;fill:url(#linear6);" d="M 98.839844 9.367188 C 99.203125 8.664062 99.636719 8.113281 100.136719 7.71875 C 100.640625 7.3125 101.230469 7.113281 101.914062 7.113281 C 102.453125 7.113281 102.886719 7.230469 103.210938 7.464844 L 103.03125 9.582031 C 102.992188 9.71875 102.933594 9.820312 102.859375 9.878906 C 102.789062 9.933594 102.695312 9.960938 102.574219 9.960938 C 102.460938 9.960938 102.289062 9.941406 102.0625 9.902344 C 101.84375 9.863281 101.625 9.847656 101.414062 9.847656 C 101.101562 9.847656 100.824219 9.890625 100.582031 9.984375 C 100.339844 10.074219 100.117188 10.207031 99.921875 10.382812 C 99.730469 10.550781 99.5625 10.757812 99.410156 11 C 99.265625 11.246094 99.128906 11.523438 99 11.835938 L 99 19.066406 L 96.1875 19.066406 L 96.1875 7.328125 L 97.839844 7.328125 C 98.125 7.328125 98.328125 7.382812 98.441406 7.488281 C 98.554688 7.589844 98.632812 7.769531 98.667969 8.039062 Z M 98.839844 9.367188 "/>
<path style=" stroke:none;fill-rule:nonzero;fill:url(#linear7);" d="M 107.527344 2.066406 L 107.527344 19.066406 L 104.714844 19.066406 L 104.714844 2.066406 Z M 107.527344 2.066406 "/>
<path style=" stroke:none;fill-rule:nonzero;fill:url(#linear8);" d="M 120.9375 7.328125 L 114.574219 22.292969 C 114.492188 22.492188 114.382812 22.640625 114.246094 22.738281 C 114.117188 22.847656 113.914062 22.898438 113.640625 22.898438 L 111.546875 22.898438 L 113.734375 18.1875 L 109.007812 7.328125 L 111.480469 7.328125 C 111.699219 7.328125 111.871094 7.382812 111.992188 7.488281 C 112.121094 7.597656 112.214844 7.71875 112.277344 7.855469 L 114.757812 13.941406 C 114.839844 14.148438 114.910156 14.351562 114.960938 14.558594 C 115.023438 14.765625 115.078125 14.976562 115.132812 15.1875 C 115.203125 14.976562 115.269531 14.765625 115.335938 14.558594 C 115.40625 14.347656 115.480469 14.136719 115.566406 13.929688 L 117.910156 7.855469 C 117.972656 7.703125 118.070312 7.578125 118.207031 7.476562 C 118.351562 7.378906 118.511719 7.328125 118.683594 7.328125 Z M 120.9375 7.328125 "/>
</g>
</svg>
