<?xml version="1.0" encoding="UTF-8" standalone="no"?>
<!-- Created with Inkscape (http://www.inkscape.org/) -->

<svg
   width="116.8335mm"
   height="146.30148mm"
   viewBox="0 0 116.83351 146.30148"
   version="1.1"
   id="svg5"
   xmlns="http://www.w3.org/2000/svg">
  <defs
     id="defs2" />
  <g
     id="layer1"
     transform="translate(-222.84566,-53.636764)">
    <path
       id="rect184"
       style="fill:#f3ae4a;stroke-width:0.264583"
       d="m 222.84615,53.63893 c 0,0 1.34659,-0.04649 2.51442,0.741274 3.59105,2.42235 11.84316,31.920033 19.95568,44.895098 9.90856,15.847658 33.01805,21.506448 35.35179,25.241928 0.4824,0.77215 0.59486,2.27072 0.59486,2.27072 h -58.41675 z m 0,0 c 0,0 -1.34659,-0.04649 -2.51442,0.741274 -3.59105,2.42235 -11.84317,31.920033 -19.95569,44.895098 -9.90856,15.847658 -33.01804,21.506448 -35.35178,25.241928 -0.4824,0.77215 -0.59486,2.27072 -0.59486,2.27072 h 58.41675 z m 0,146.29804 c 0,0 1.34659,0.0465 2.51442,-0.74128 3.59105,-2.42235 11.84316,-31.92003 19.95568,-44.8951 9.90856,-15.84765 33.01805,-21.50644 35.35179,-25.24192 0.4824,-0.77215 0.59486,-2.27072 0.59486,-2.27072 h -58.41675 z m 0,0 c 0,0 -1.34659,0.0465 -2.51442,-0.74128 -3.59105,-2.42235 -11.84317,-31.92003 -19.95569,-44.8951 -9.90856,-15.84765 -33.01804,-21.50644 -35.35178,-25.24192 -0.4824,-0.77215 -0.59486,-2.27072 -0.59486,-2.27072 h 58.41675 z"
       class="UnoptimicedTransforms"
       transform="translate(58.416264,-4.4274878e-4)" />
  </g>
</svg>
