<svg width="1512" height="915" viewBox="0 0 1512 915" fill="none" xmlns="http://www.w3.org/2000/svg">
<rect x="1141" y="30.6277" width="317" height="303.405" rx="151.702" fill="#FFC100"/>
<path fill-rule="evenodd" clip-rule="evenodd" d="M1594 278.562L1539.68 269.891C1486.49 262.304 1378.99 247.129 1270.35 247.129C1162.84 247.129 1055.33 262.304 947.826 231.954C840.319 200.521 731.681 123.565 624.174 123.565C516.667 123.565 409.16 200.521 301.653 192.934C193.014 185.347 85.507 92.1314 32.3192 46.6077L-22.0001 0V417.301H32.3192C85.507 417.301 193.014 417.301 301.653 417.301C409.16 417.301 516.667 417.301 624.174 417.301C731.681 417.301 840.319 417.301 947.826 417.301C1055.33 417.301 1162.84 417.301 1270.35 417.301C1378.99 417.301 1486.49 417.301 1539.68 417.301H1594V278.562Z" fill="#312CC2"/>
<path fill-rule="evenodd" clip-rule="evenodd" d="M-552 339.295L-456.667 349.212C-361.333 359.129 -170.667 378.962 20 369.045C210.667 359.129 401.333 319.461 592 269.877C782.667 220.293 973.333 160.792 1164 150.875C1354.67 140.958 1545.33 180.626 1640.67 200.459L1736 220.293V517.798H1640.67C1545.33 517.798 1354.67 517.798 1164 517.798C973.333 517.798 782.667 517.798 592 517.798C401.333 517.798 210.667 517.798 20 517.798C-170.667 517.798 -361.333 517.798 -456.667 517.798H-552V339.295Z" fill="#0A0855"/>
<path fill-rule="evenodd" clip-rule="evenodd" d="M2163 488.824L2088.34 479.775C2015.24 471.857 1867.49 456.021 1718.18 456.021C1570.42 456.021 1422.67 471.857 1274.91 440.185C1127.16 407.382 977.844 327.072 830.089 327.072C682.333 327.072 534.578 407.382 386.822 399.464C237.511 391.546 89.7556 294.269 16.6555 246.761L-58 198.123V633.609H16.6555C89.7556 633.609 237.511 633.609 386.822 633.609C534.578 633.609 682.333 633.609 830.089 633.609C977.844 633.609 1127.16 633.609 1274.91 633.609C1422.67 633.609 1570.42 633.609 1718.18 633.609C1867.49 633.609 2015.24 633.609 2088.34 633.609H2163V488.824Z" fill="#453FF4"/>
<path fill-rule="evenodd" clip-rule="evenodd" d="M-89 606.228L-35.2185 597.218C17.4426 589.335 123.885 573.569 231.448 573.569C337.891 573.569 444.333 589.335 550.776 557.803C657.219 525.144 764.782 445.187 871.224 445.187C977.667 445.187 1084.11 525.144 1190.55 517.261C1298.11 509.378 1404.56 412.528 1457.22 365.229L1511 316.804V750.376H1457.22C1404.56 750.376 1298.11 750.376 1190.55 750.376C1084.11 750.376 977.667 750.376 871.224 750.376C764.782 750.376 657.219 750.376 550.776 750.376C444.333 750.376 337.891 750.376 231.448 750.376C123.885 750.376 17.4426 750.376 -35.2185 750.376H-89V606.228Z" fill="#312CC2"/>
<path fill-rule="evenodd" clip-rule="evenodd" d="M1782 753.223L1722.5 758.967C1663 764.711 1544 776.199 1425 770.455C1306 764.711 1187 741.735 1068 713.015C949 684.295 830 649.83 711 644.086C592 638.342 473 661.319 413.5 672.807L354 684.295V856.616H413.5C473 856.616 592 856.616 711 856.616C830 856.616 949 856.616 1068 856.616C1187 856.616 1306 856.616 1425 856.616C1544 856.616 1663 856.616 1722.5 856.616H1782V753.223Z" fill="#453FF4"/>
<path fill-rule="evenodd" clip-rule="evenodd" d="M1339 753.223L1279.5 758.967C1220 764.711 1101 776.199 982 770.455C863 764.711 744 741.735 625 713.015C506 684.295 387 649.83 268 644.086C149 638.342 29.9999 661.319 -29.5001 672.807L-89.0001 684.295V856.616H-29.5001C29.9999 856.616 149 856.616 268 856.616C387 856.616 506 856.616 625 856.616C744 856.616 863 856.616 982 856.616C1101 856.616 1220 856.616 1279.5 856.616H1339V753.223Z" fill="#3E38E3"/>
<path fill-rule="evenodd" clip-rule="evenodd" d="M-186 811.607L-113.542 817.351C-41.0833 823.096 103.833 834.584 248.75 828.84C393.667 823.096 538.583 800.119 683.5 771.399C828.417 742.679 973.333 708.215 1118.25 702.471C1263.17 696.727 1408.08 719.703 1480.54 731.191L1553 742.679V915H1480.54C1408.08 915 1263.17 915 1118.25 915C973.333 915 828.417 915 683.5 915C538.583 915 393.667 915 248.75 915C103.833 915 -41.0833 915 -113.542 915H-186V811.607Z" fill="#0A0855"/>
</svg>
