<svg version="1.2" xmlns="http://www.w3.org/2000/svg" viewBox="0 0 387 120" width="387" height="120"><style>.a{fill:#fff}.b{fill:none;stroke:#fff;stroke-width:1.1}</style><path fill-rule="evenodd" class="a" d="m125.9 94.3q0.5 0 0.9 0.2 0.5 0.1 0.8 0.5 0.3 0.3 0.5 0.7 0.2 0.5 0.2 0.9c0 1-0.6 1.9-1.5 2.2-0.9 0.4-1.9 0.2-2.6-0.5-0.7-0.7-0.9-1.7-0.5-2.6 0.4-0.9 1.3-1.4 2.2-1.4zm0 0q0 0 0 0zm1.5 3.8c0.3-0.4 0.5-0.9 0.5-1.4 0-0.6-0.2-1.1-0.5-1.5-0.4-0.3-0.9-0.5-1.5-0.5-0.5 0-1 0.2-1.4 0.5-0.3 0.4-0.6 0.9-0.6 1.5 0 0.5 0.3 1 0.6 1.4 0.4 0.3 0.9 0.6 1.4 0.6 0.6 0 1.1-0.3 1.5-0.6z"/><path fill-rule="evenodd" class="a" d="m126.8 97.3q0 0.1 0.1 0.2 0 0.1 0 0.2 0 0.1 0 0.1 0.1 0.1 0.1 0.2h-0.5q0-0.1 0-0.2-0.1 0-0.1-0.1 0-0.1 0-0.2-0.1-0.1-0.1-0.2 0-0.1 0-0.2-0.1-0.1-0.1-0.1-0.1-0.1-0.2-0.1-0.1-0.1-0.2 0h-0.3v1.1h-0.4v-2.6q0.1 0 0.1 0 0.1 0 0.2-0.1 0.1 0 0.2 0 0.1 0 0.2 0 0.1 0 0.2 0 0.1 0 0.2 0.1 0.1 0 0.2 0 0.1 0.1 0.2 0.1 0.2 0.2 0.2 0.3 0.1 0.2 0 0.4 0 0.2-0.1 0.3-0.2 0.2-0.4 0.2c0.3 0.1 0.4 0.3 0.5 0.6zm-0.4-1.2c0-0.2-0.1-0.4-0.6-0.4h-0.3v0.9h0.3c0.3 0 0.6-0.2 0.6-0.5z"/><path class="a" d=""/><path class="a" d="m141.9 42.9v20.7h-11.1l-1.1-6.2h-16.2v28.7h7.2v12.9h-31.9v-12.9h7.1v-28.7h-4.7v24.8h-13.7v-2.8c-6.3 3.4-15.1 5.6-25.1 6.4q-1.9 0.2-3.8 0.2-3.7 0-7.3-0.6-3.7-0.6-7.2-1.8-3.5-1.2-6.7-2.9-3.3-1.8-6.2-4.1c-7.8-6.2-12.1-14.5-12.2-23.5-0.1-8.3 3.5-16.7 10.2-23.5q3.1-3.1 6.8-5.6 3.6-2.4 7.7-4.1 4.1-1.7 8.4-2.6 4.3-0.9 8.7-0.9h0.2q3.3 0 6.7 0.4 3.3 0.4 6.5 1.3 3.3 0.9 6.4 2.2 3.1 1.4 5.9 3.1v-6.4h12.9v22.3h-12.7l-0.2-0.2q0 0-0.1-0.1 0 0-0.1-0.1 0 0-0.1 0 0-0.1-0.1-0.1l-0.4-0.4q-2.3-1.8-4.8-3.3-2.5-1.4-5.3-2.4-2.7-1-5.6-1.5-2.8-0.6-5.7-0.6-0.6 0-1.3 0-2.3 0.1-4.5 0.5-2.3 0.5-4.4 1.3-2.1 0.9-4.1 2.1-2 1.1-3.7 2.7-1.7 1.4-3.1 3.2-1.3 1.8-2.3 3.9-0.9 2-1.4 4.2-0.5 2.2-0.5 4.5c0 5.6 2.5 10.6 7.4 14.3q1.9 1.3 4 2.4 2 1 4.2 1.8 2.1 0.7 4.4 1.2 2.3 0.4 4.5 0.6c0.9 0.1 1.7 0.1 2.5 0.1 11.9 0 21.3-6.6 23.2-16h-5l-1.2 6.2h-11.1v-20.7z"/><path class="a" d="m183.8 25.4q0.1 0.1 0.1 0.1 0 0 0 0 0 0 0 0.1 0 0 0 0v1.6q0 0 0 0 0 0.1 0 0.1 0 0-0.1 0 0 0 0 0h-1.2q0 0 0 0-0.1 0-0.1 0 0 0 0-0.1 0 0 0 0v-0.8c0 0 0-0.1-0.1-0.1q-0.1-0.1-0.3-0.2-0.1 0-0.3-0.1-0.2 0-0.4 0-0.2-0.1-0.3 0-0.3-0.1-0.6 0-0.3 0-0.6 0.2-0.2 0.2-0.4 0.4-0.2 0.3-0.3 0.5 0 0.3-0.1 0.5 0 0.3 0 0.5-0.1 0.3-0.1 0.5 0 0.3 0 0.5 0 0.3 0 0.5 0 0.3 0 0.5 0.1 0.3 0.1 0.5 0 0.3 0.1 0.5 0.1 0.3 0.3 0.6 0.1 0.2 0.4 0.4 0.2 0.1 0.5 0.2 0.3 0.1 0.6 0 0.2 0 0.4 0 0.2 0 0.3 0 0.2-0.1 0.4-0.1 0.2-0.1 0.3-0.2c0.1 0 0.2-0.1 0.2-0.2v-1.7c0-0.1 0-0.1-0.1-0.1h-1.4q0 0-0.1 0 0 0 0 0 0-0.1 0-0.1 0 0 0 0v-1q0-0.1 0-0.1 0 0 0 0 0 0 0-0.1 0.1 0 0.1 0h2.8q0 0 0.1 0 0 0.1 0 0.1 0 0 0 0 0.1 0 0 0.1v3.7q0.1 0 0 0.1 0 0 0 0.1 0 0 0 0.1-0.1 0-0.1 0-0.3 0.2-0.7 0.4-0.3 0.1-0.7 0.3-0.4 0.1-0.8 0.1-0.3 0.1-0.7 0c-1.8 0-2.9-0.6-3.3-2q-0.1-0.3-0.2-0.6 0-0.3 0-0.6-0.1-0.4-0.1-0.7 0-0.3 0.1-0.6-0.1-0.3-0.1-0.6 0-0.3 0.1-0.6 0-0.3 0.1-0.6 0-0.3 0.1-0.6 0.2-0.6 0.5-1 0.4-0.4 0.8-0.7 0.5-0.3 1-0.4 0.6-0.1 1.1-0.1 0.4 0 0.7 0.1 0.4 0 0.7 0.1 0.4 0.1 0.7 0.3 0.3 0.1 0.6 0.3z"/><path fill-rule="evenodd" class="a" d="m190.9 28.9q0.1 0.2 0.1 0.4 0.1 0.3 0.1 0.5 0 0.3 0 0.5 0.1 0.2 0 0.5 0 0 0 0 0 0 0 0.1 0 0-0.1 0 0 0 0 0h-3.9c0 0-0.1 0-0.1 0.1q0 0 0.1 0.1 0 0.1 0 0.1 0 0.1 0 0.1 0 0.1 0 0.2 0.1 0.2 0.2 0.4 0.2 0.2 0.4 0.3 0.2 0.1 0.4 0.2 0.2 0.1 0.4 0 0.3 0.1 0.5 0 0.2 0 0.3-0.1 0.2-0.1 0.4-0.2 0.2-0.1 0.3-0.2 0-0.1 0.1-0.1 0 0 0 0 0 0 0.1 0 0 0 0 0.1l0.8 0.6q0 0 0 0.1 0 0 0 0 0 0.1 0 0.1 0 0 0 0-0.3 0.3-0.6 0.5-0.3 0.2-0.6 0.3-0.3 0.2-0.7 0.2-0.3 0.1-0.7 0.1-0.4 0-0.8-0.1-0.4-0.1-0.8-0.4-0.4-0.2-0.6-0.5-0.3-0.4-0.4-0.8 0-0.2-0.1-0.4 0-0.2-0.1-0.4 0-0.1 0-0.3 0-0.2 0-0.4 0-0.2 0-0.4 0-0.2 0-0.4 0.1-0.2 0.1-0.4 0-0.2 0.1-0.4c0.2-0.5 0.6-0.9 1-1.2 0.5-0.4 1-0.5 1.6-0.5 0.5 0 1.1 0.1 1.5 0.5 0.5 0.3 0.8 0.7 1 1.2zm-3.8 0.3q0 0.1 0 0.2 0 0 0 0.1 0 0.1 0 0.1-0.1 0.1-0.1 0.2c0.1 0 0 0 0.1 0h2.5c0 0 0.1 0 0.1 0q0-0.1 0-0.2 0 0 0-0.1-0.1-0.1-0.1-0.1 0-0.1 0-0.2-0.2-0.3-0.5-0.5-0.3-0.3-0.7-0.3-0.4 0-0.8 0.3-0.3 0.2-0.5 0.5z"/><path fill-rule="evenodd" class="a" d="m197.8 28.9q0 0.2 0.1 0.4 0 0.2 0 0.3 0.1 0.2 0.1 0.4 0 0.2 0 0.4 0 0.2 0 0.4 0 0.2-0.1 0.4 0 0.2 0 0.4-0.1 0.2-0.1 0.4c-0.2 0.5-0.6 0.9-1 1.2-0.5 0.3-1 0.5-1.6 0.5-0.6 0-1.1-0.2-1.6-0.5-0.4-0.3-0.8-0.7-1-1.2q0-0.2-0.1-0.4 0-0.2-0.1-0.4 0-0.2 0-0.4 0-0.2 0-0.4 0-0.2 0-0.4 0-0.2 0-0.4 0.1-0.1 0.1-0.3 0.1-0.2 0.1-0.4c0.2-0.5 0.6-1 1-1.3 0.5-0.3 1-0.4 1.6-0.4 0.6 0 1.1 0.1 1.6 0.4 0.4 0.3 0.8 0.8 1 1.3zm-3.8 0.4q0 0.1 0 0.3-0.1 0.1-0.1 0.2 0 0.2 0 0.3 0 0.2 0 0.3 0 0.2 0 0.3 0 0.2 0 0.3 0 0.2 0.1 0.3 0 0.1 0 0.3 0.2 0.3 0.5 0.6 0.3 0.2 0.7 0.2 0.4 0 0.7-0.2 0.3-0.3 0.5-0.6 0-0.2 0-0.3 0.1-0.1 0.1-0.3 0-0.1 0-0.3 0-0.1 0-0.3 0-0.1 0-0.3 0-0.1 0-0.3 0-0.1-0.1-0.2 0-0.2 0-0.3-0.1-0.2-0.2-0.4-0.1-0.1-0.3-0.2-0.1-0.2-0.3-0.2-0.2-0.1-0.4 0-0.2-0.1-0.4 0-0.2 0-0.3 0.1-0.2 0.2-0.3 0.3-0.1 0.2-0.2 0.4z"/><path class="a" d="m203.6 27.3c0 0 0.1 0 0.1 0.1v1.1c0 0.1-0.1 0.2-0.2 0.2q-0.1-0.1-0.2-0.1 0 0-0.1 0-0.1 0-0.2 0-0.1 0-0.2 0c-0.9 0-1.4 0.4-1.4 1.6v2c0 0 0 0 0.1 0h0.6q0 0.1 0 0.1 0 0 0.1 0 0 0 0 0 0 0.1 0 0.1v1q0 0 0 0 0 0.1 0 0.1-0.1 0-0.1 0 0 0 0 0h-2.8q-0.1 0-0.1 0 0 0 0 0 0 0-0.1-0.1 0 0 0 0v-1q0 0 0-0.1 0.1 0 0.1 0 0 0 0 0 0 0 0.1-0.1h0.5c0.1 0 0.1 0 0.1 0v-3.5c0-0.1 0-0.1-0.1-0.1h-0.5q-0.1 0-0.1 0 0 0 0-0.1 0 0-0.1 0 0 0 0-0.1v-1q0 0 0 0 0.1 0 0.1-0.1 0 0 0 0 0 0 0.1 0h2q0 0 0 0 0 0 0.1 0 0 0.1 0 0.1 0 0 0 0v0.7q0.1-0.2 0.3-0.4 0.2-0.2 0.4-0.3 0.2-0.1 0.4-0.1 0.3-0.1 0.5-0.1 0.1 0 0.1 0 0.1 0 0.2 0 0.1 0 0.1 0 0.1 0.1 0.2 0.1z"/><path fill-rule="evenodd" class="a" d="m208.6 27.9v-0.5q0 0 0 0 0-0.1 0.1-0.1 0 0 0 0 0 0 0.1 0h2q0 0 0 0 0 0 0 0 0.1 0 0.1 0.1 0 0 0 0v1q0 0 0 0.1 0 0-0.1 0 0 0 0 0 0 0.1 0 0h-0.6c-0.1 0-0.1 0-0.1 0.1v4.5q0.1 0.6-0.1 1.2-0.2 0.6-0.7 1-0.4 0.4-1 0.6-0.5 0.2-1.1 0.1-0.3 0-0.7-0.1-0.3 0-0.6-0.1-0.3-0.1-0.5-0.3-0.3-0.2-0.5-0.4 0 0 0-0.1-0.1 0-0.1 0 0 0 0.1-0.1 0 0 0 0l0.8-0.8q0 0 0 0 0 0 0.1 0 0 0 0 0 0 0 0.1 0 0.1 0.2 0.2 0.3 0.2 0.1 0.4 0.1 0.2 0.1 0.3 0.2 0.2 0 0.4 0c1 0 1.4-0.5 1.4-1.5v-0.6q-0.1 0.2-0.3 0.4-0.2 0.1-0.4 0.2-0.2 0.1-0.4 0.1-0.3 0.1-0.5 0-0.4 0.1-0.7 0-0.3-0.1-0.6-0.3-0.3-0.2-0.5-0.5-0.2-0.3-0.3-0.7-0.1-0.2-0.1-0.4-0.1-0.2-0.1-0.4 0-0.2 0-0.4 0-0.2 0-0.4 0-0.2 0-0.4 0-0.2 0-0.4 0-0.2 0.1-0.4 0-0.2 0.1-0.3 0.1-0.4 0.3-0.7 0.2-0.3 0.5-0.5 0.3-0.2 0.6-0.3 0.3-0.1 0.7 0 0.2-0.1 0.5 0 0.2 0 0.4 0.1 0.2 0.1 0.4 0.3 0.2 0.1 0.3 0.3zm-2.3 1.3q-0.1 0.2-0.1 0.3 0 0.1 0 0.2-0.1 0.2-0.1 0.3 0 0.1 0 0.2 0 0.2 0 0.3 0 0.1 0.1 0.2 0 0.2 0 0.3 0 0.1 0.1 0.2 0.1 0.4 0.4 0.6 0.3 0.2 0.7 0.2 0.4 0 0.7-0.2 0.3-0.2 0.4-0.6 0-0.1 0.1-0.2 0-0.1 0-0.3 0-0.1 0-0.2 0-0.1 0-0.3 0-0.1 0-0.2 0-0.1 0-0.3 0-0.1 0-0.2-0.1-0.1-0.1-0.3-0.1-0.3-0.4-0.5-0.3-0.3-0.7-0.3-0.4 0-0.7 0.3-0.3 0.2-0.4 0.5z"/><path class="a" d="m214 27.3q0 0 0 0 0.1 0 0.1 0 0 0 0 0.1 0 0 0 0v4.8q0 0 0 0 0 0.1 0 0.1 0.1 0 0.1 0 0 0 0 0h0.6q0 0 0 0 0 0 0.1 0 0 0 0 0.1 0 0 0 0v1q0 0 0 0.1 0 0 0 0-0.1 0-0.1 0 0 0 0 0h-2.8q0 0.1-0.1 0 0 0 0 0 0 0 0 0 0-0.1 0-0.1v-1q0 0 0 0 0-0.1 0-0.1 0 0 0 0 0.1 0 0.1 0h0.6c0 0 0 0 0-0.1v-3.5c0-0.1 0-0.1 0-0.1h-0.6q0 0-0.1 0 0 0 0-0.1 0 0 0 0 0 0 0-0.1v-1q0 0 0 0 0 0 0-0.1 0 0 0.1 0 0 0 0 0zm0-2.6q0 0 0.1 0 0 0.1 0 0.1 0 0 0 0 0 0 0 0.1v1.1q0 0 0 0.1 0 0 0 0 0 0 0 0-0.1 0.1-0.1 0.1h-1.2q0-0.1 0-0.1-0.1 0-0.1 0 0 0 0 0 0-0.1 0-0.1v-1.1q0-0.1 0-0.1 0 0 0 0 0 0 0.1-0.1 0 0 0 0z"/><path fill-rule="evenodd" class="a" d="m221.1 29.3v2.9q0 0 0 0 0 0.1 0.1 0.1 0 0 0 0 0 0 0 0h0.6q0 0 0 0 0.1 0 0.1 0 0 0 0 0.1 0 0 0 0v1q0 0 0 0.1 0 0 0 0 0 0-0.1 0 0 0 0 0h-1.9q0 0.1 0 0-0.1 0-0.1 0 0 0 0 0 0-0.1 0-0.1v-0.4q-0.2 0.2-0.4 0.3-0.2 0.2-0.4 0.3-0.2 0.1-0.5 0.1-0.2 0-0.5 0-0.4 0.1-0.7-0.1-0.4-0.1-0.7-0.4-0.3-0.2-0.5-0.6-0.2-0.4-0.1-0.8c0-1.4 1-2 2.5-2h1.2c0.1 0 0.1 0 0.1-0.1v-0.2c0-0.7-0.3-1.1-1.3-1.1q-0.1 0-0.2 0-0.1 0-0.1 0-0.1 0-0.2 0-0.1 0-0.2 0.1 0 0 0 0 0 0 0 0 0 0 0 0-0.1 0 0 0l-0.1 0.6q0.1 0 0 0.1 0 0 0 0 0 0 0 0-0.1 0-0.1 0h-1.1q0 0-0.1 0 0 0 0 0 0 0 0 0 0-0.1 0-0.1v-1.3q0-0.1 0-0.1 0 0 0 0 0-0.1 0-0.1 0 0 0.1 0 0.2-0.1 0.5-0.2 0.2-0.1 0.5-0.1 0.3-0.1 0.5-0.1 0.3-0.1 0.6 0c1.8 0 2.5 0.6 2.5 2.1zm-2.4 1.6c-1 0-1.4 0.2-1.4 0.8 0 0.6 0.4 0.8 1.1 0.8 0.9 0 1.4-0.3 1.4-1v-0.5c0 0 0-0.1-0.1-0.1z"/><path class="a" d="m232.8 24.7q0 0 0 0 0.1 0 0.1 0.1 0 0 0 0 0 0 0 0v2.1q0 0.1 0 0.1 0 0 0 0 0 0-0.1 0.1 0 0 0 0h-1.1q-0.1 0-0.1 0 0-0.1 0-0.1 0 0-0.1 0 0 0 0-0.1v-0.8q0 0 0 0 0 0 0 0 0 0 0 0 0 0 0 0h-1.4c0 0 0 0 0 0v6.1c0 0.1 0 0.1 0 0.1h0.7q0 0 0.1 0 0 0 0 0 0 0 0 0.1 0 0 0 0v1q0 0 0 0.1 0 0 0 0 0 0 0 0-0.1 0.1-0.1 0h-3q0 0.1 0 0-0.1 0-0.1 0 0 0 0 0 0-0.1 0-0.1v-1q0 0 0 0 0-0.1 0-0.1 0 0 0.1 0 0 0 0 0h0.7c0 0 0.1 0 0.1-0.1v-6c0-0.1 0-0.1-0.1-0.1h-1.3q-0.1 0-0.1 0 0 0 0 0 0 0 0 0 0 0 0 0.1v0.7q0 0.1 0 0.1 0 0-0.1 0 0 0 0 0.1 0 0 0 0h-1.2q0 0 0 0 0-0.1-0.1-0.1 0 0 0 0 0 0 0-0.1v-2.1q0 0 0 0 0 0 0 0 0.1-0.1 0.1-0.1 0 0 0 0z"/><path fill-rule="evenodd" class="a" d="m238 28.9q0.1 0.2 0.1 0.4 0.1 0.3 0.1 0.5 0 0.3 0 0.5 0 0.2 0 0.5 0 0 0 0 0 0.1 0 0.1-0.1 0-0.1 0 0 0 0 0h-3.9c0 0-0.1 0-0.1 0.1q0 0 0 0.1 0 0.1 0 0.1 0.1 0.1 0.1 0.1 0 0.1 0 0.1 0.1 0.3 0.2 0.5 0.1 0.2 0.3 0.3 0.2 0.1 0.5 0.2 0.2 0.1 0.4 0 0.2 0.1 0.4 0 0.2 0 0.4-0.1 0.2-0.1 0.4-0.2 0.1-0.1 0.3-0.2 0-0.1 0-0.1 0.1 0 0.1 0 0 0 0 0 0.1 0 0.1 0.1l0.7 0.6q0.1 0 0.1 0.1 0 0 0 0 0 0.1 0 0.1 0 0-0.1 0-0.2 0.3-0.5 0.5-0.3 0.2-0.6 0.3-0.4 0.2-0.7 0.2-0.4 0.1-0.7 0.1-0.5 0-0.9-0.1-0.4-0.1-0.8-0.3-0.3-0.3-0.6-0.6-0.2-0.4-0.4-0.8 0-0.2-0.1-0.4 0-0.2 0-0.4-0.1-0.1-0.1-0.3 0-0.2 0-0.4 0-0.2 0-0.4 0-0.2 0-0.4 0.1-0.2 0.1-0.4 0.1-0.2 0.1-0.4c0.2-0.5 0.6-0.9 1-1.2 0.5-0.4 1-0.5 1.6-0.5 0.5 0 1.1 0.1 1.5 0.5 0.5 0.3 0.8 0.7 1 1.2zm-3.8 0.3q0 0.1 0 0.2 0 0 0 0.1 0 0.1 0 0.1 0 0.1 0 0.2c0 0 0 0 0 0h2.5c0.1 0 0.1 0 0.1 0q0-0.1 0-0.2 0 0 0-0.1 0-0.1-0.1-0.1 0-0.1 0-0.2-0.2-0.3-0.5-0.5-0.3-0.3-0.7-0.3-0.4 0-0.8 0.3-0.3 0.2-0.5 0.5z"/><path class="a" d="m244.4 27.7q0.1 0 0.1 0 0 0 0 0 0 0 0 0.1 0.1 0 0.1 0v1.4q0 0.1-0.1 0.1 0 0 0 0 0 0.1 0 0.1-0.1 0-0.1 0h-1.1q0 0 0 0-0.1 0-0.1-0.1 0 0 0 0 0 0 0-0.1v-0.5c0 0 0-0.1-0.1-0.1q-0.1-0.1-0.2-0.1-0.1 0-0.2 0-0.1 0-0.2 0-0.1-0.1-0.2 0-0.2-0.1-0.4 0-0.2 0-0.4 0.1-0.1 0.1-0.3 0.3-0.1 0.2-0.2 0.4 0 0.1 0 0.3-0.1 0.1-0.1 0.2 0 0.2 0 0.3 0 0.2 0 0.3 0 0.2 0 0.3 0 0.2 0 0.3 0 0.2 0 0.3 0.1 0.2 0.1 0.3 0.1 0.2 0.2 0.4 0.1 0.1 0.3 0.2 0.2 0.1 0.4 0.2 0.2 0 0.4 0 0.1 0 0.2 0 0.1 0 0.2 0 0.1 0 0.2-0.1 0.1 0 0.2 0c0 0 0.1 0 0.1-0.1v-0.6q-0.1 0 0 0 0-0.1 0-0.1 0 0 0 0 0.1 0 0.1 0h1.1q0 0 0 0 0.1 0 0.1 0 0 0 0 0.1 0 0 0 0v1.4q0 0.1 0 0.1 0 0 0 0.1 0 0 0 0-0.1 0-0.1 0-0.2 0.1-0.5 0.2-0.3 0.1-0.5 0.2-0.3 0.1-0.6 0.1-0.3 0-0.6 0-0.4 0-0.8-0.1-0.4-0.1-0.8-0.3-0.3-0.2-0.6-0.6-0.2-0.3-0.4-0.7 0-0.2-0.1-0.4 0-0.2 0-0.4-0.1-0.2-0.1-0.4 0-0.2 0-0.4 0-0.2 0-0.4 0-0.2 0.1-0.4 0-0.2 0-0.3 0.1-0.2 0.1-0.4 0.2-0.4 0.4-0.8 0.3-0.3 0.7-0.6 0.3-0.2 0.7-0.3 0.5-0.1 0.9-0.1 0.3 0 0.5 0.1 0.3 0 0.6 0.1 0.3 0 0.5 0.1 0.3 0.1 0.5 0.3z"/><path class="a" d="m247.9 24.7q0 0 0.1 0 0 0 0 0.1 0 0 0 0 0 0 0 0v3q0.2-0.1 0.4-0.3 0.2-0.1 0.4-0.2 0.2-0.1 0.4-0.2 0.2 0 0.5 0 0.4 0 0.8 0.2 0.5 0.2 0.8 0.5 0.3 0.3 0.4 0.8 0.2 0.4 0.1 0.9v2.7q0 0 0 0 0 0 0 0 0.1 0.1 0.1 0.1 0 0 0 0h0.5q0.1 0 0.1 0 0 0 0 0 0 0 0.1 0 0 0.1 0 0.1v1q0 0 0 0-0.1 0.1-0.1 0.1 0 0 0 0 0 0-0.1 0h-2.7q0 0 0 0 0 0-0.1 0 0 0 0-0.1 0 0 0 0v-1q0 0 0-0.1 0 0 0 0 0.1 0 0.1 0 0 0 0 0h0.6q0 0 0 0 0 0 0.1-0.1 0 0 0 0 0 0 0 0v-2.4c0-0.8-0.4-1.4-1.2-1.4-0.8 0-1.2 0.6-1.2 1.4v2.4c0 0.1 0 0.1 0.1 0.1h0.5q0.1 0 0.1 0 0 0 0 0 0 0 0.1 0.1 0 0 0 0v1q0 0 0 0.1-0.1 0-0.1 0 0 0 0 0 0 0.1-0.1 0h-2.7q0 0 0 0-0.1 0-0.1 0 0 0 0 0 0-0.1 0-0.1v-1q0 0 0 0 0-0.1 0-0.1 0 0 0.1 0 0 0 0 0h0.6c0 0 0 0 0-0.1v-6.1c0 0 0-0.1 0-0.1h-0.6q0 0 0 0-0.1 0-0.1 0 0-0.1 0-0.1 0 0 0 0v-1q0-0.1 0-0.1 0 0 0 0 0-0.1 0.1-0.1 0 0 0 0z"/><path class="a" d="m188.1 47.2q-0.3-0.5-0.7-0.9-0.5-0.3-1-0.6-0.5-0.3-1-0.4-0.6-0.1-1.2 0c-1.8 0-2.9 0.8-2.9 2.3 0 1.7 1.3 2.4 3.8 2.9 3.7 0.8 5.5 2.2 5.5 5.4 0 2.7-1.8 5.1-6.1 5.1-3.1 0-5.2-0.9-6.7-2.9l2.4-1.6q0.3 0.5 0.8 0.9 0.5 0.3 1 0.6 0.6 0.3 1.1 0.4 0.6 0.1 1.2 0.1c2.5 0 3.3-1.1 3.3-2.4 0-1.3-0.8-2.3-3.9-3-3.5-0.8-5.4-2.4-5.4-5.5 0-2.7 1.7-5 6-5 2.8 0 4.8 1 6.1 3z"/><path class="a" d="m203.4 58.8c-0.8 1.6-2.4 2.2-4.6 2.2-3.6 0-5.7-2.3-5.7-5.8v-1.8c0-3.7 2.1-5.8 5.8-5.8q0.7-0.1 1.3 0.1 0.6 0.1 1.2 0.3 0.6 0.3 1.1 0.7 0.5 0.5 0.9 1l-2.1 1.5q-0.2-0.3-0.5-0.6-0.3-0.2-0.6-0.3-0.3-0.2-0.6-0.3-0.4 0-0.7 0c-2 0-3 1.3-3 3.5v1.5c0 2 0.7 3.6 3 3.6q0.3 0 0.7 0 0.3-0.1 0.7-0.3 0.3-0.1 0.6-0.4 0.2-0.2 0.4-0.6z"/><path class="a" d="m205.7 42.9h2.8v6q0.2-0.3 0.6-0.6 0.3-0.3 0.8-0.5 0.4-0.1 0.8-0.2 0.5-0.1 0.9 0c2.7 0 4.8 1.3 4.8 5.1v8.1h-2.8v-7.8c0-2.3-1-2.9-2.5-2.9q-0.5-0.1-1.1 0.2-0.5 0.2-0.9 0.6-0.4 0.4-0.5 1-0.2 0.5-0.1 1.1v7.8h-2.8z"/><path fill-rule="evenodd" class="a" d="m229.6 58.8c-0.9 1.6-2.3 2.2-4.6 2.2-3.8 0-5.7-2.4-5.7-5.8v-1.8c0-3.8 1.8-5.8 5.2-5.8 3.5 0 5.3 2.1 5.3 6v1.4h-7.8c0 2 0.8 3.6 2.8 3.6q0.4 0.1 0.8 0 0.4-0.1 0.8-0.2 0.3-0.2 0.6-0.5 0.3-0.2 0.5-0.6zm-7.6-5.9q0.1-0.1 0.1-0.1h-0.1zm5 0c-0.1-1.9-0.8-2.8-2.4-2.8-1.6 0-2.4 1.1-2.5 2.8z"/><path class="a" d="m232.9 42.9h2.8v13.2c0 1.4 0.3 2.3 2 2.3v2.4c-3.3 0-4.7-1.1-4.7-4.1z"/><path class="a" d="m240.7 42.9h2.8v13.2c0 1.4 0.3 2.3 2 2.3v2.4c-3.3 0-4.7-1.1-4.7-4.1z"/><path fill-rule="evenodd" class="a" d="m258.4 58.8c-1 1.6-2.4 2.2-4.7 2.2-3.7 0-5.7-2.4-5.7-5.8v-1.8c0-3.8 1.9-5.8 5.3-5.8 3.5 0 5.2 2.1 5.2 6v1.4h-7.7c0 2 0.7 3.6 2.8 3.6q0.4 0.1 0.8 0 0.4-0.1 0.7-0.2 0.4-0.2 0.7-0.5 0.3-0.2 0.5-0.6zm-7.6-5.9q0-0.1 0-0.1zm5 0c-0.1-1.9-0.9-2.8-2.5-2.8-1.5 0-2.4 1.1-2.5 2.8z"/><path class="a" d="m268.7 51.1q-0.1-0.3-0.3-0.5-0.2-0.2-0.5-0.3-0.2-0.1-0.5-0.2-0.3 0-0.5 0c-1.5 0-2.4 1-2.4 2.9v7.8h-2.8v-13h2.7v1.2q0.2-0.4 0.6-0.6 0.3-0.3 0.7-0.5 0.4-0.2 0.8-0.3 0.4 0 0.8 0 0.6 0 1.1 0.1 0.5 0.1 1 0.4 0.5 0.2 0.9 0.6 0.3 0.4 0.6 0.8z"/><path class="a" d="m289.7 48.4c-0.5-2.1-1.7-3.1-3.6-3.1-2.4 0-3.7 1.5-3.7 5.4v2.3c0 3.8 1.3 5.4 3.7 5.4 2 0 3.1-1 3.6-3.1h2.9c-0.6 4-3 5.8-6.5 5.8-4 0-6.7-2.4-6.7-8.1v-2.3c0-5.7 2.7-8.1 6.7-8.1 3.5 0 5.9 1.9 6.5 5.8z"/><path fill-rule="evenodd" class="a" d="m305.8 55.1c0 3.5-1.7 5.9-5.5 5.9-3.6 0-5.5-2.3-5.5-5.9v-1.6c0-3.8 2-5.9 5.5-5.9 3.6 0 5.5 2.1 5.5 5.9zm-2.7-1.6c0-2.3-0.9-3.6-2.8-3.6-1.8 0-2.8 1.3-2.8 3.6v1.5c0 2 0.7 3.6 2.8 3.6 2.1 0 2.8-1.6 2.8-3.6z"/><path class="a" d="m308.7 42.9h2.8v13.2c0 1.4 0.2 2.3 2 2.3v2.4c-3.4 0-4.8-1.1-4.8-4.1z"/><path class="a" d="m316.5 42.9h2.8v13.2c0 1.4 0.2 2.3 2 2.3v2.4c-3.4 0-4.8-1.1-4.8-4.1z"/><path fill-rule="evenodd" class="a" d="m334.1 58.8c-0.9 1.6-2.4 2.2-4.6 2.2-3.8 0-5.7-2.4-5.7-5.8v-1.8c0-3.8 1.8-5.8 5.2-5.8 3.4 0 5.3 2.1 5.3 6v1.4h-7.8c0 2 0.8 3.6 2.8 3.6q0.4 0.1 0.8 0 0.4-0.1 0.8-0.2 0.3-0.2 0.6-0.5 0.3-0.2 0.5-0.6zm-7.5-5.9q0-0.1 0-0.1zm5 0c-0.1-1.9-0.9-2.8-2.5-2.8-1.6 0-2.4 1.1-2.5 2.8z"/><path fill-rule="evenodd" class="a" d="m345.2 47.8h2.7v12.8c0 3.9-2.3 5.3-5.6 5.3-2.4 0-3.8-0.6-4.9-2.3l2-1.4q0.2 0.4 0.5 0.6 0.3 0.3 0.7 0.5 0.4 0.2 0.8 0.2 0.4 0.1 0.8 0c2.1 0 3-0.8 3-3v-0.5q-0.3 0.3-0.7 0.5-0.3 0.2-0.7 0.4-0.4 0.1-0.9 0.2-0.4 0-0.8 0c-3.5 0-5.2-2.5-5.2-5.9v-1.8c0-3.7 2-5.8 5.2-5.8q0.4 0 0.8 0 0.5 0.1 0.9 0.2 0.4 0.2 0.7 0.4 0.4 0.2 0.7 0.5zm0 5.7c0-2.2-0.9-3.5-2.8-3.5-1.8 0-2.7 1.3-2.7 3.5v1.5c0 2 0.7 3.6 2.7 3.6 2 0 2.8-1.5 2.8-3.6z"/><path fill-rule="evenodd" class="a" d="m361.2 58.8c-0.9 1.6-2.4 2.2-4.6 2.2-3.8 0-5.7-2.4-5.7-5.8v-1.8c0-3.8 1.8-5.8 5.2-5.8 3.6 0 5.3 2.1 5.3 6v1.4h-7.8c0 2 0.8 3.6 2.8 3.6q0.4 0.1 0.8 0 0.4-0.1 0.8-0.2 0.3-0.2 0.6-0.5 0.3-0.2 0.5-0.6zm-7.5-5.9q0-0.1 0-0.1zm5 0c-0.1-1.9-0.9-2.8-2.5-2.8-1.6 0-2.4 1.1-2.5 2.8z"/><path fill-rule="evenodd" class="a" d="m188.8 82.4c0 3.4-1.7 5.9-5.5 5.9-3.7 0-5.6-2.4-5.6-5.9v-1.7c0-3.8 2-5.9 5.6-5.9 3.5 0 5.5 2.1 5.5 5.9zm-2.8-0.1v-1.5c0-2.2-0.9-3.5-2.7-3.5-1.9 0-2.8 1.3-2.8 3.5v1.6c0 1.9 0.6 3.6 2.8 3.6 2.1 0 2.7-1.6 2.7-3.7z"/><path class="a" d="m192.3 75.1v-0.8c0-3.1 1.1-4.2 4.2-4.2h0.8v2.5h-0.6c-1.4 0-1.7 0.7-1.7 2.2v0.3h2.3v2.4h-2.3v10.6h-2.8v-10.6h-1.6v-2.4z"/><path fill-rule="evenodd" class="a" d="m213 70.1c4.2 0 6.4 1.6 6.4 4.7q0 0.6-0.2 1.2-0.2 0.6-0.5 1.1-0.4 0.6-0.9 1-0.5 0.4-1.1 0.6 0.8 0.1 1.4 0.5 0.6 0.4 1 1 0.5 0.6 0.7 1.3 0.2 0.7 0.1 1.4c0 2.7-1.7 5.2-6.3 5.2h-6.4v-18zm-2.7 7.4h2.9c2.3 0 3.2-1 3.2-2.5 0-1.5-0.7-2.3-3.6-2.3h-2.5zm0 8h3.1c2.4 0 3.6-1 3.6-2.7 0-1.9-1.3-2.7-3.9-2.7h-2.8z"/><path class="a" d="m233.5 88.1h-2.7v-1.2c-0.6 0.9-1.4 1.4-3.2 1.4-2.7 0-4.7-1.4-4.7-5.1v-8.1h2.7v7.8c0 2.3 1 3 2.5 3 1.8 0 2.7-1.1 2.7-2.9v-7.9h2.7z"/><path class="a" d="m244.2 78.5q-0.2-0.4-0.6-0.6-0.3-0.2-0.7-0.4-0.3-0.2-0.7-0.2-0.4-0.1-0.8 0c-1.2 0-2 0.4-2 1.3 0 1.1 1 1.5 2.4 1.6 2.9 0.4 4.8 1.4 4.8 4.1 0 2.4-1.6 4-5 4-2.7 0-4.2-0.7-5.2-2.2l2.1-1.5c0.6 0.8 1.4 1.3 3.1 1.3 1.4 0 2.2-0.6 2.2-1.5 0-1-0.6-1.4-2.7-1.6-2.4-0.3-4.5-1.4-4.5-4.1 0-2.3 1.7-3.9 4.8-3.9 2.2 0 3.9 0.6 4.9 2.2z"/><path class="a" d="m249.8 70.1h3v2.9h-3zm0.1 4.9h2.8v13h-2.7z"/><path class="a" d="m256.6 75.1h2.7v1.1q0.3-0.3 0.6-0.6 0.4-0.3 0.8-0.5 0.4-0.2 0.9-0.2 0.5-0.1 0.9-0.1c2.7 0 4.7 1.4 4.7 5.1v8.2h-2.7v-7.9c0-2.3-1-2.9-2.5-2.9q-0.6 0-1.1 0.2-0.5 0.2-0.9 0.6-0.4 0.5-0.6 1-0.1 0.5-0.1 1.1v7.9h-2.7z"/><path fill-rule="evenodd" class="a" d="m280.5 86.1c-0.9 1.6-2.4 2.2-4.7 2.2-3.7 0-5.7-2.4-5.7-5.9v-1.7c0-3.9 1.9-5.9 5.3-5.9 3.4 0 5.3 2.2 5.3 6v1.5h-7.8c0 2 0.8 3.6 2.8 3.6q0.4 0 0.8 0 0.4-0.1 0.8-0.3 0.3-0.1 0.6-0.4 0.3-0.3 0.5-0.6zm-7.6-6q0.1 0 0.1 0h-0.1zm5 0c-0.1-1.9-0.8-2.9-2.4-2.9-1.6 0-2.4 1.1-2.5 2.9z"/><path class="a" d="m291 78.5q-0.2-0.4-0.6-0.6-0.3-0.3-0.7-0.4-0.3-0.2-0.7-0.2-0.4-0.1-0.8 0c-1.2 0-2 0.4-2 1.3 0 1.1 1 1.5 2.4 1.6 2.9 0.4 4.8 1.4 4.8 4.1 0 2.4-1.6 4-5 4-2.7 0-4.2-0.7-5.2-2.2l2.1-1.5c0.6 0.8 1.3 1.3 3.1 1.3 1.4 0 2.2-0.6 2.2-1.5 0-1-0.7-1.4-2.7-1.6-2.5-0.3-4.5-1.4-4.5-4.1 0-2.3 1.7-3.9 4.8-3.9 2.2 0 3.9 0.6 4.9 2.2z"/><path class="a" d="m303.6 78.5q-0.3-0.4-0.6-0.6-0.3-0.3-0.7-0.4-0.3-0.2-0.7-0.2-0.4-0.1-0.9 0c-1.1 0-2 0.4-2 1.3 0 1.1 1 1.5 2.5 1.6 2.9 0.4 4.8 1.4 4.8 4.1 0 2.4-1.7 4-5 4-2.7 0-4.2-0.7-5.3-2.2l2.2-1.5c0.6 0.8 1.3 1.3 3 1.3 1.5 0 2.3-0.6 2.3-1.5 0-1-0.7-1.4-2.7-1.6-2.5-0.3-4.5-1.4-4.5-4.1 0-2.3 1.6-3.9 4.8-3.9 2.2 0 3.8 0.6 4.9 2.2z"/><path class="b" d="m159.6 16.8l0.2 82.2"/></svg>